<svg xmlns="http://www.w3.org/2000/svg" x="0px" y="0px" width="100" height="100" viewBox="0,0,256,256">
<g fill="none" fill-rule="nonzero" stroke="none" stroke-width="1" stroke-linecap="butt" stroke-linejoin="miter" stroke-miterlimit="10" stroke-dasharray="" stroke-dashoffset="0" font-family="none" font-weight="none" font-size="none" text-anchor="none" style="mix-blend-mode: normal"><g transform="scale(4,4)"><path d="M48.26,48.26c-3.47,3.48 -7.77,5.6 -12.26,6.38c-2.64,0.48 -5.36,0.48 -8,0c-4.49,-0.78 -8.79,-2.9 -12.26,-6.38c-8.99,-8.98 -8.99,-23.54 0,-32.52c8.98,-8.99 23.54,-8.99 32.52,0c8.99,8.98 8.99,23.54 0,32.52z" fill="#339af0"></path><ellipse cx="32" cy="61" rx="19" ry="3" fill="#000000" opacity="0.3"></ellipse><path d="M36,28v4h4.847c0.609,0 1.076,0.539 0.99,1.141l-0.592,4.141c-0.14,0.986 -0.984,1.718 -1.98,1.718h-3.265v15.64c-2.64,0.48 -5.36,0.48 -8,0v-15.64h-4c-1.105,0 -2,-0.895 -2,-2v-3c0,-1.105 0.895,-2 2,-2h4v-4c0,-6.603 3.559,-11.426 12.354,-9.854c0.951,0.17 1.646,1.008 1.646,1.974v1.979c0,1.014 -0.762,1.879 -1.77,1.983c-2.82,0.29 -4.23,1.399 -4.23,3.918z" fill="#ffffff"></path><path d="M32,14c2.577,0 4.674,-1.957 4.946,-4.461c-1.594,-0.349 -3.247,-0.539 -4.946,-0.539c-12.703,0 -23,10.297 -23,23c0,1.699 0.19,3.352 0.539,4.946c2.505,-0.272 4.461,-2.369 4.461,-4.946c0,-9.925 8.075,-18 18,-18z" fill="#ffffff" opacity="0.3"></path><path d="M54.461,27.054c-2.505,0.272 -4.461,2.369 -4.461,4.946c0,9.925 -8.075,18 -18,18c-2.577,0 -4.674,1.957 -4.946,4.461c1.594,0.349 3.247,0.539 4.946,0.539c12.703,0 23,-10.297 23,-23c0,-1.699 -0.19,-3.352 -0.539,-4.946z" fill="#000000" opacity="0.15"></path><path d="M15.045,24.927c-0.229,0 -0.46,-0.053 -0.678,-0.163c-0.739,-0.375 -1.033,-1.278 -0.658,-2.017c2.019,-3.977 5.339,-7.241 9.347,-9.192c0.743,-0.364 1.642,-0.053 2.005,0.692c0.363,0.745 0.053,1.643 -0.692,2.005c-3.424,1.667 -6.26,4.456 -7.985,7.853c-0.265,0.522 -0.792,0.822 -1.339,0.822z" fill="#ffffff"></path></g></g>
</svg>