<svg width="124" height="68" viewBox="0 0 124 68" fill="none" xmlns="http://www.w3.org/2000/svg">
<path d="M32.424 67.384C27.88 67.384 23.656 66.648 19.752 65.176C15.848 63.64 12.424 61.432 9.48 58.552C6.536 55.672 4.264 52.216 2.664 48.184C1.064 44.088 0.264 39.48 0.264 34.36C0.264 29.24 1.096 24.632 2.76 20.536C4.424 16.44 6.728 12.92 9.672 9.976C12.616 6.968 16.008 4.664 19.848 3.064C23.688 1.464 27.784 0.663996 32.136 0.663996C35.336 0.663996 38.088 0.887997 40.392 1.336C42.76 1.72 44.616 2.104 45.96 2.488L47.784 20.056H41.16L37.032 9.4C36.584 9.336 36.072 9.272 35.496 9.20799C34.984 9.08 34.056 9.016 32.712 9.016C28.36 9.016 24.488 10.104 21.096 12.28C17.768 14.456 15.144 17.4 13.224 21.112C11.368 24.76 10.376 28.92 10.248 33.592C10.312 38.392 11.24 42.712 13.032 46.552C14.824 50.328 17.384 53.368 20.712 55.672C24.04 57.912 28.008 59.032 32.616 59.032C35.048 59.032 37.48 58.648 39.912 57.88C42.344 57.048 44.424 55.896 46.152 54.424L49.32 61.72C48.232 62.744 46.76 63.704 44.904 64.6C43.112 65.432 41.128 66.104 38.952 66.616C36.776 67.128 34.6 67.384 32.424 67.384ZM57.5055 67L56.5455 60.184L62.3055 58.84V8.44L56.2575 7.86399V0.663996H79.6815C84.2255 0.663996 88.0655 1.432 91.2015 2.96799C94.3375 4.504 96.7055 6.584 98.3055 9.20799C99.9695 11.832 100.802 14.776 100.802 18.04C100.802 20.984 100.29 23.512 99.2655 25.624C98.2415 27.672 96.9615 29.304 95.4255 30.52C93.8895 31.672 92.4815 32.504 91.2015 33.016C93.4415 33.72 95.4895 34.744 97.3455 36.088C99.2655 37.368 100.77 39.064 101.858 41.176C103.01 43.224 103.586 45.848 103.586 49.048C103.586 55.064 101.634 59.576 97.7295 62.584C93.8255 65.528 88.7055 67 82.3695 67H57.5055ZM72.0975 58.648H81.6975C84.2575 58.648 86.4015 58.232 88.1295 57.4C89.9215 56.504 91.2655 55.288 92.1615 53.752C93.0575 52.152 93.5055 50.264 93.5055 48.088C93.5055 44.824 92.2895 42.296 89.8575 40.504C87.4895 38.648 84.2575 37.72 80.1615 37.72H72.0975V58.648ZM72.0975 29.56H79.3935C82.0175 29.56 84.1295 29.08 85.7295 28.12C87.3935 27.16 88.6415 25.88 89.4735 24.28C90.3055 22.68 90.7215 20.92 90.7215 19C90.7215 15.864 89.6015 13.432 87.3615 11.704C85.1855 9.912 82.0495 9.016 77.9535 9.016H72.0975V29.56ZM117.328 67.384C115.728 67.384 114.352 66.84 113.2 65.752C112.112 64.6 111.568 63.224 111.568 61.624C111.568 60.024 112.112 58.68 113.2 57.592C114.352 56.44 115.728 55.864 117.328 55.864C118.928 55.864 120.272 56.44 121.36 57.592C122.512 58.68 123.088 60.024 123.088 61.624C123.088 63.224 122.512 64.6 121.36 65.752C120.272 66.84 118.928 67.384 117.328 67.384Z" fill="#183D3D"/>
</svg>
