<svg width="435" height="121" viewBox="0 0 435 121" fill="none" xmlns="http://www.w3.org/2000/svg">
<path d="M35.424 94.384C30.88 94.384 26.656 93.648 22.752 92.176C18.848 90.64 15.424 88.432 12.48 85.552C9.536 82.672 7.264 79.216 5.664 75.184C4.064 71.088 3.264 66.48 3.264 61.36C3.264 56.24 4.096 51.632 5.76 47.536C7.424 43.44 9.728 39.92 12.672 36.976C15.616 33.968 19.008 31.664 22.848 30.064C26.688 28.464 30.784 27.664 35.136 27.664C38.336 27.664 41.088 27.888 43.392 28.336C45.76 28.72 47.616 29.104 48.96 29.488L50.784 47.056H44.16L40.032 36.4C39.584 36.336 39.072 36.272 38.496 36.208C37.984 36.08 37.056 36.016 35.712 36.016C31.36 36.016 27.488 37.104 24.096 39.28C20.768 41.456 18.144 44.4 16.224 48.112C14.368 51.76 13.376 55.92 13.248 60.592C13.312 65.392 14.24 69.712 16.032 73.552C17.824 77.328 20.384 80.368 23.712 82.672C27.04 84.912 31.008 86.032 35.616 86.032C38.048 86.032 40.48 85.648 42.912 84.88C45.344 84.048 47.424 82.896 49.152 81.424L52.32 88.72C51.232 89.744 49.76 90.704 47.904 91.6C46.112 92.432 44.128 93.104 41.952 93.616C39.776 94.128 37.6 94.384 35.424 94.384ZM59.2575 94L58.1055 88.816L63.7695 87.28V54.832L58.7775 55.024L57.8175 49.456L69.3375 47.344L72.2175 51.856C73.5615 50.384 75.0975 49.264 76.8255 48.496C78.6175 47.728 80.3455 47.344 82.0095 47.344C84.8255 47.344 87.2575 48.016 89.3055 49.36C91.3535 50.704 92.8575 52.496 93.8175 54.736L84.3135 59.536L81.2415 54.928C80.2815 54.928 79.1295 55.28 77.7855 55.984C76.4415 56.624 75.2575 57.712 74.2335 59.248C73.2735 60.784 72.7935 62.832 72.7935 65.392V86.128L85.2735 88.816V94H59.2575ZM111.597 94.384C108.781 94.384 106.317 93.872 104.205 92.848C102.093 91.76 100.429 90.256 99.213 88.336C98.061 86.352 97.485 84.112 97.485 81.616C97.485 78.608 98.253 76.144 99.789 74.224C101.389 72.24 103.405 70.704 105.837 69.616C108.333 68.464 110.989 67.664 113.805 67.216C116.621 66.704 119.277 66.416 121.773 66.352V59.44C121.773 58.096 121.133 56.976 119.853 56.08C118.637 55.184 116.845 54.736 114.477 54.736C113.773 54.736 112.973 54.8 112.077 54.928C111.181 54.992 110.445 55.184 109.869 55.504L107.853 61.648L97.869 58.192C99.085 54.928 101.229 52.336 104.301 50.416C107.437 48.432 110.957 47.44 114.861 47.44C117.997 47.44 120.749 47.952 123.117 48.976C125.485 50 127.341 51.6 128.685 53.776C130.029 55.888 130.701 58.64 130.701 62.032V85.072C130.701 85.84 130.861 86.448 131.181 86.896C131.565 87.344 132.077 87.568 132.717 87.568C133.037 87.568 133.357 87.536 133.677 87.472C133.997 87.344 134.221 87.248 134.349 87.184L135.789 91.792C135.277 92.304 134.413 92.88 133.197 93.52C132.045 94.096 130.733 94.384 129.261 94.384C127.405 94.384 125.965 93.968 124.941 93.136C123.917 92.304 123.117 91.248 122.541 89.968C121.261 91.248 119.661 92.304 117.741 93.136C115.885 93.968 113.837 94.384 111.597 94.384ZM113.133 86.992C114.989 86.992 116.685 86.512 118.221 85.552C119.821 84.592 121.005 83.44 121.773 82.096V73.168C120.365 73.168 118.797 73.296 117.069 73.552C115.341 73.744 113.677 74.128 112.077 74.704C110.541 75.216 109.261 75.984 108.237 77.008C107.213 78.032 106.701 79.376 106.701 81.04C106.701 82.64 107.245 84.048 108.333 85.264C109.421 86.416 111.021 86.992 113.133 86.992ZM189.836 94.384C187.788 94.384 185.964 93.968 184.364 93.136C182.764 92.304 181.516 90.992 180.62 89.2C179.724 87.344 179.276 85.008 179.276 82.192L179.468 54.544H171.98L170.54 48.4L171.212 47.44H179.564L179.66 31.312L187.628 29.488L188.396 30.832L188.3 47.44H198.284C198.604 47.44 198.764 47.632 198.764 48.016V54.544H188.3V82.384C188.3 84.24 188.588 85.456 189.164 86.032C189.804 86.608 190.7 86.896 191.852 86.896C193.068 86.896 194.284 86.544 195.5 85.84C196.716 85.136 197.58 84.592 198.092 84.208L200.204 90.64C199.372 91.408 198.06 92.24 196.268 93.136C194.476 93.968 192.332 94.384 189.836 94.384ZM206.943 94L205.983 87.184L211.743 85.84V35.44L205.695 34.864V27.664H229.119C233.663 27.664 237.503 28.432 240.639 29.968C243.775 31.504 246.143 33.584 247.743 36.208C249.407 38.832 250.239 41.776 250.239 45.04C250.239 47.984 249.727 50.512 248.703 52.624C247.679 54.672 246.399 56.304 244.863 57.52C243.327 58.672 241.919 59.504 240.639 60.016C242.879 60.72 244.927 61.744 246.783 63.088C248.703 64.368 250.207 66.064 251.295 68.176C252.447 70.224 253.023 72.848 253.023 76.048C253.023 82.064 251.071 86.576 247.167 89.584C243.263 92.528 238.143 94 231.807 94H206.943ZM221.535 85.648H231.135C233.695 85.648 235.839 85.232 237.567 84.4C239.359 83.504 240.703 82.288 241.599 80.752C242.495 79.152 242.943 77.264 242.943 75.088C242.943 71.824 241.727 69.296 239.295 67.504C236.927 65.648 233.695 64.72 229.599 64.72H221.535V85.648ZM221.535 56.56H228.831C231.455 56.56 233.567 56.08 235.167 55.12C236.831 54.16 238.079 52.88 238.911 51.28C239.743 49.68 240.159 47.92 240.159 46C240.159 42.864 239.039 40.432 236.799 38.704C234.623 36.912 231.487 36.016 227.391 36.016H221.535V56.56ZM259.291 94L258.523 88.816L264.283 87.472V31.216H259.099L258.139 25.552L270.139 23.728L273.211 26.896V87.376L279.259 88.816V94H259.291ZM304.681 94.384C300.713 94.384 297.193 93.36 294.121 91.312C291.049 89.264 288.649 86.448 286.921 82.864C285.193 79.28 284.329 75.216 284.329 70.672C284.329 65.936 285.225 61.84 287.017 58.384C288.809 54.864 291.209 52.144 294.217 50.224C297.289 48.304 300.777 47.344 304.681 47.344C308.649 47.344 312.169 48.336 315.241 50.32C318.313 52.24 320.713 54.96 322.441 58.48C324.169 62 325.033 66.064 325.033 70.672C325.033 75.28 324.169 79.376 322.441 82.96C320.713 86.544 318.313 89.36 315.241 91.408C312.169 93.392 308.649 94.384 304.681 94.384ZM304.681 86.992C307.113 86.992 309.161 86.352 310.825 85.072C312.489 83.728 313.737 81.872 314.569 79.504C315.401 77.136 315.817 74.352 315.817 71.152C315.817 68.016 315.401 65.2 314.569 62.704C313.737 60.208 312.489 58.256 310.825 56.848C309.161 55.44 307.113 54.736 304.681 54.736C302.825 54.736 301.193 55.184 299.785 56.08C298.441 56.912 297.289 58.128 296.329 59.728C295.433 61.264 294.761 63.056 294.313 65.104C293.865 67.088 293.641 69.232 293.641 71.536C293.641 74.672 294.057 77.424 294.889 79.792C295.785 82.096 297.033 83.888 298.633 85.168C300.297 86.384 302.313 86.992 304.681 86.992ZM349.142 119.824C345.622 119.824 342.454 119.216 339.638 118C336.822 116.784 334.582 115.056 332.918 112.816C331.318 110.576 330.518 107.952 330.518 104.944C330.518 101.808 331.35 99.184 333.014 97.072C334.678 95.024 336.534 93.424 338.582 92.272C337.75 91.568 337.078 90.736 336.566 89.776C336.118 88.816 335.894 87.664 335.894 86.32C335.894 84.848 336.246 83.504 336.95 82.288C337.654 81.008 338.486 79.888 339.446 78.928C337.27 77.52 335.51 75.632 334.166 73.264C332.886 70.896 332.246 68.144 332.246 65.008C332.246 61.36 333.078 58.224 334.742 55.6C336.406 52.976 338.614 50.96 341.366 49.552C344.182 48.144 347.19 47.44 350.39 47.44C352.694 47.44 354.87 47.792 356.918 48.496C358.966 49.136 360.79 50.128 362.39 51.472L371.99 46.672L374.006 46.96L375.062 55.024L366.422 56.08C367.126 57.296 367.67 58.672 368.054 60.208C368.502 61.68 368.726 63.248 368.726 64.912C368.726 68.496 367.862 71.568 366.134 74.128C364.47 76.688 362.262 78.64 359.51 79.984C356.758 81.328 353.718 82 350.39 82C349.75 82 349.11 82 348.47 82C347.894 81.936 347.318 81.84 346.742 81.712L344.822 84.496L345.11 86.128L354.998 88.432C358.07 89.136 360.726 90.064 362.966 91.216C365.27 92.368 367.062 93.808 368.342 95.536C369.622 97.328 370.262 99.6 370.262 102.352C370.262 106.128 369.27 109.296 367.286 111.856C365.366 114.48 362.774 116.464 359.51 117.808C356.31 119.152 352.854 119.824 349.142 119.824ZM350.678 110.896C352.662 110.896 354.582 110.608 356.438 110.032C358.294 109.456 359.798 108.592 360.95 107.44C362.166 106.352 362.774 105.072 362.774 103.6C362.774 102.192 362.23 101.072 361.142 100.24C360.054 99.472 358.614 98.8 356.822 98.224C355.094 97.712 353.174 97.264 351.062 96.88C349.014 96.496 347.03 96.016 345.11 95.44C343.254 96.272 341.75 97.36 340.598 98.704C339.446 100.048 338.87 101.616 338.87 103.408C338.87 104.88 339.382 106.16 340.406 107.248C341.43 108.4 342.806 109.296 344.534 109.936C346.326 110.576 348.374 110.896 350.678 110.896ZM350.39 74.704C353.398 74.704 355.638 73.744 357.11 71.824C358.646 69.84 359.414 67.44 359.414 64.624C359.414 61.936 358.646 59.632 357.11 57.712C355.638 55.728 353.398 54.736 350.39 54.736C347.446 54.736 345.206 55.728 343.67 57.712C342.198 59.632 341.462 61.936 341.462 64.624C341.462 67.44 342.198 69.84 343.67 71.824C345.206 73.744 347.446 74.704 350.39 74.704Z" fill="#93B1A6"/>
<path d="M143.186 94L142.13 88.816L147.506 87.568V54.64H140.978L139.634 48.4L140.306 47.44H147.506V39.568C147.506 35.984 148.082 33.04 149.234 30.736C150.386 28.368 151.986 26.64 154.034 25.552C156.146 24.4 158.546 23.824 161.234 23.824C162.514 23.824 163.89 24.016 165.362 24.4C166.898 24.784 168.402 25.392 169.874 26.224C171.41 27.056 172.786 28.176 174.002 29.584L166.034 36.208L161.522 31.216H160.466C158.866 31.216 157.778 31.76 157.202 32.848C156.69 33.872 156.434 35.056 156.434 36.4V47.44H167.186C167.506 47.44 167.666 47.632 167.666 48.016V54.64H156.434V87.472L166.322 88.816L166.226 94H143.186ZM394.573 94.288C391.629 94.288 389.005 93.776 386.701 92.752C384.397 91.728 382.509 90.448 381.037 88.912C379.565 87.312 378.477 85.776 377.773 84.304L387.757 80.464L390.157 86.032C390.477 86.16 391.053 86.352 391.885 86.608C392.781 86.864 393.869 86.992 395.149 86.992C395.981 86.992 396.877 86.8 397.837 86.416C398.861 86.032 399.725 85.456 400.429 84.688C401.133 83.856 401.485 82.768 401.485 81.424C401.485 80.016 401.037 78.864 400.141 77.968C399.309 77.072 398.157 76.336 396.685 75.76C395.213 75.12 393.613 74.448 391.885 73.744C387.917 72.336 384.909 70.544 382.861 68.368C380.877 66.192 379.885 63.6 379.885 60.592C379.885 57.968 380.557 55.664 381.901 53.68C383.309 51.696 385.197 50.16 387.565 49.072C389.933 47.92 392.493 47.344 395.245 47.344C398.253 47.344 400.813 47.856 402.925 48.88C405.101 49.84 406.861 51.056 408.205 52.528C409.613 54 410.637 55.408 411.277 56.752L401.293 60.592L398.989 55.696C398.797 55.568 398.381 55.376 397.741 55.12C397.101 54.864 396.205 54.736 395.053 54.736C394.093 54.736 393.165 54.928 392.269 55.312C391.373 55.632 390.605 56.144 389.965 56.848C389.389 57.552 389.101 58.48 389.101 59.632C389.101 60.848 389.549 61.872 390.445 62.704C391.405 63.536 392.749 64.336 394.477 65.104C396.205 65.808 398.189 66.64 400.429 67.6C403.629 68.88 406.125 70.576 407.917 72.688C409.773 74.736 410.701 77.36 410.701 80.56C410.701 83.504 409.901 86.032 408.301 88.144C406.765 90.192 404.749 91.728 402.253 92.752C399.821 93.776 397.261 94.288 394.573 94.288ZM424.359 94.384C422.759 94.384 421.383 93.84 420.231 92.752C419.143 91.6 418.599 90.224 418.599 88.624C418.599 87.024 419.143 85.68 420.231 84.592C421.383 83.44 422.759 82.864 424.359 82.864C425.959 82.864 427.303 83.44 428.391 84.592C429.543 85.68 430.119 87.024 430.119 88.624C430.119 90.224 429.543 91.6 428.391 92.752C427.303 93.84 425.959 94.384 424.359 94.384Z" fill="white"/>
</svg>
