<svg width="428" height="97" viewBox="0 0 428 97" fill="none" xmlns="http://www.w3.org/2000/svg">
<path d="M32.424 71.384C27.88 71.384 23.656 70.648 19.752 69.176C15.848 67.64 12.424 65.432 9.48 62.552C6.536 59.672 4.264 56.216 2.664 52.184C1.064 48.088 0.264 43.48 0.264 38.36C0.264 33.24 1.096 28.632 2.76 24.536C4.424 20.44 6.728 16.92 9.672 13.976C12.616 10.968 16.008 8.664 19.848 7.064C23.688 5.464 27.784 4.664 32.136 4.664C35.336 4.664 38.088 4.888 40.392 5.336C42.76 5.72 44.616 6.104 45.96 6.488L47.784 24.056H41.16L37.032 13.4C36.584 13.336 36.072 13.272 35.496 13.208C34.984 13.08 34.056 13.016 32.712 13.016C28.36 13.016 24.488 14.104 21.096 16.28C17.768 18.456 15.144 21.4 13.224 25.112C11.368 28.76 10.376 32.92 10.248 37.592C10.312 42.392 11.24 46.712 13.032 50.552C14.824 54.328 17.384 57.368 20.712 59.672C24.04 61.912 28.008 63.032 32.616 63.032C35.048 63.032 37.48 62.648 39.912 61.88C42.344 61.048 44.424 59.896 46.152 58.424L49.32 65.72C48.232 66.744 46.76 67.704 44.904 68.6C43.112 69.432 41.128 70.104 38.952 70.616C36.776 71.128 34.6 71.384 32.424 71.384ZM56.2575 71L55.1055 65.816L60.7695 64.28V31.832L55.7775 32.024L54.8175 26.456L66.3375 24.344L69.2175 28.856C70.5615 27.384 72.0975 26.264 73.8255 25.496C75.6175 24.728 77.3455 24.344 79.0095 24.344C81.8255 24.344 84.2575 25.016 86.3055 26.36C88.3535 27.704 89.8575 29.496 90.8175 31.736L81.3135 36.536L78.2415 31.928C77.2815 31.928 76.1295 32.28 74.7855 32.984C73.4415 33.624 72.2575 34.712 71.2335 36.248C70.2735 37.784 69.7935 39.832 69.7935 42.392V63.128L82.2735 65.816V71H56.2575ZM108.597 71.384C105.781 71.384 103.317 70.872 101.205 69.848C99.093 68.76 97.429 67.256 96.213 65.336C95.061 63.352 94.485 61.112 94.485 58.616C94.485 55.608 95.253 53.144 96.789 51.224C98.389 49.24 100.405 47.704 102.837 46.616C105.333 45.464 107.989 44.664 110.805 44.216C113.621 43.704 116.277 43.416 118.773 43.352V36.44C118.773 35.096 118.133 33.976 116.853 33.08C115.637 32.184 113.845 31.736 111.477 31.736C110.773 31.736 109.973 31.8 109.077 31.928C108.181 31.992 107.445 32.184 106.869 32.504L104.853 38.648L94.869 35.192C96.085 31.928 98.229 29.336 101.301 27.416C104.437 25.432 107.957 24.44 111.861 24.44C114.997 24.44 117.749 24.952 120.117 25.976C122.485 27 124.341 28.6 125.685 30.776C127.029 32.888 127.701 35.64 127.701 39.032V62.072C127.701 62.84 127.861 63.448 128.181 63.896C128.565 64.344 129.077 64.568 129.717 64.568C130.037 64.568 130.357 64.536 130.677 64.472C130.997 64.344 131.221 64.248 131.349 64.184L132.789 68.792C132.277 69.304 131.413 69.88 130.197 70.52C129.045 71.096 127.733 71.384 126.261 71.384C124.405 71.384 122.965 70.968 121.941 70.136C120.917 69.304 120.117 68.248 119.541 66.968C118.261 68.248 116.661 69.304 114.741 70.136C112.885 70.968 110.837 71.384 108.597 71.384ZM110.133 63.992C111.989 63.992 113.685 63.512 115.221 62.552C116.821 61.592 118.005 60.44 118.773 59.096V50.168C117.365 50.168 115.797 50.296 114.069 50.552C112.341 50.744 110.677 51.128 109.077 51.704C107.541 52.216 106.261 52.984 105.237 54.008C104.213 55.032 103.701 56.376 103.701 58.04C103.701 59.64 104.245 61.048 105.333 62.264C106.421 63.416 108.021 63.992 110.133 63.992ZM186.836 71.384C184.788 71.384 182.964 70.968 181.364 70.136C179.764 69.304 178.516 67.992 177.62 66.2C176.724 64.344 176.276 62.008 176.276 59.192L176.468 31.544H168.98L167.54 25.4L168.212 24.44H176.564L176.66 8.31199L184.628 6.488L185.396 7.832L185.3 24.44H195.284C195.604 24.44 195.764 24.632 195.764 25.016V31.544H185.3V59.384C185.3 61.24 185.588 62.456 186.164 63.032C186.804 63.608 187.7 63.896 188.852 63.896C190.068 63.896 191.284 63.544 192.5 62.84C193.716 62.136 194.58 61.592 195.092 61.208L197.204 67.64C196.372 68.408 195.06 69.24 193.268 70.136C191.476 70.968 189.332 71.384 186.836 71.384ZM203.943 71L202.983 64.184L208.743 62.84V12.44L202.695 11.864V4.664H226.119C230.663 4.664 234.503 5.432 237.639 6.96799C240.775 8.504 243.143 10.584 244.743 13.208C246.407 15.832 247.239 18.776 247.239 22.04C247.239 24.984 246.727 27.512 245.703 29.624C244.679 31.672 243.399 33.304 241.863 34.52C240.327 35.672 238.919 36.504 237.639 37.016C239.879 37.72 241.927 38.744 243.783 40.088C245.703 41.368 247.207 43.064 248.295 45.176C249.447 47.224 250.023 49.848 250.023 53.048C250.023 59.064 248.071 63.576 244.167 66.584C240.263 69.528 235.143 71 228.807 71H203.943ZM218.535 62.648H228.135C230.695 62.648 232.839 62.232 234.567 61.4C236.359 60.504 237.703 59.288 238.599 57.752C239.495 56.152 239.943 54.264 239.943 52.088C239.943 48.824 238.727 46.296 236.295 44.504C233.927 42.648 230.695 41.72 226.599 41.72H218.535V62.648ZM218.535 33.56H225.831C228.455 33.56 230.567 33.08 232.167 32.12C233.831 31.16 235.079 29.88 235.911 28.28C236.743 26.68 237.159 24.92 237.159 23C237.159 19.864 236.039 17.432 233.799 15.704C231.623 13.912 228.487 13.016 224.391 13.016H218.535V33.56ZM256.291 71L255.523 65.816L261.283 64.472V8.216H256.099L255.139 2.55199L267.139 0.727995L270.211 3.89599V64.376L276.259 65.816V71H256.291ZM301.681 71.384C297.713 71.384 294.193 70.36 291.121 68.312C288.049 66.264 285.649 63.448 283.921 59.864C282.193 56.28 281.329 52.216 281.329 47.672C281.329 42.936 282.225 38.84 284.017 35.384C285.809 31.864 288.209 29.144 291.217 27.224C294.289 25.304 297.777 24.344 301.681 24.344C305.649 24.344 309.169 25.336 312.241 27.32C315.313 29.24 317.713 31.96 319.441 35.48C321.169 39 322.033 43.064 322.033 47.672C322.033 52.28 321.169 56.376 319.441 59.96C317.713 63.544 315.313 66.36 312.241 68.408C309.169 70.392 305.649 71.384 301.681 71.384ZM301.681 63.992C304.113 63.992 306.161 63.352 307.825 62.072C309.489 60.728 310.737 58.872 311.569 56.504C312.401 54.136 312.817 51.352 312.817 48.152C312.817 45.016 312.401 42.2 311.569 39.704C310.737 37.208 309.489 35.256 307.825 33.848C306.161 32.44 304.113 31.736 301.681 31.736C299.825 31.736 298.193 32.184 296.785 33.08C295.441 33.912 294.289 35.128 293.329 36.728C292.433 38.264 291.761 40.056 291.313 42.104C290.865 44.088 290.641 46.232 290.641 48.536C290.641 51.672 291.057 54.424 291.889 56.792C292.785 59.096 294.033 60.888 295.633 62.168C297.297 63.384 299.313 63.992 301.681 63.992ZM346.142 96.824C342.622 96.824 339.454 96.216 336.638 95C333.822 93.784 331.582 92.056 329.918 89.816C328.318 87.576 327.518 84.952 327.518 81.944C327.518 78.808 328.35 76.184 330.014 74.072C331.678 72.024 333.534 70.424 335.582 69.272C334.75 68.568 334.078 67.736 333.566 66.776C333.118 65.816 332.894 64.664 332.894 63.32C332.894 61.848 333.246 60.504 333.95 59.288C334.654 58.008 335.486 56.888 336.446 55.928C334.27 54.52 332.51 52.632 331.166 50.264C329.886 47.896 329.246 45.144 329.246 42.008C329.246 38.36 330.078 35.224 331.742 32.6C333.406 29.976 335.614 27.96 338.366 26.552C341.182 25.144 344.19 24.44 347.39 24.44C349.694 24.44 351.87 24.792 353.918 25.496C355.966 26.136 357.79 27.128 359.39 28.472L368.99 23.672L371.006 23.96L372.062 32.024L363.422 33.08C364.126 34.296 364.67 35.672 365.054 37.208C365.502 38.68 365.726 40.248 365.726 41.912C365.726 45.496 364.862 48.568 363.134 51.128C361.47 53.688 359.262 55.64 356.51 56.984C353.758 58.328 350.718 59 347.39 59C346.75 59 346.11 59 345.47 59C344.894 58.936 344.318 58.84 343.742 58.712L341.822 61.496L342.11 63.128L351.998 65.432C355.07 66.136 357.726 67.064 359.966 68.216C362.27 69.368 364.062 70.808 365.342 72.536C366.622 74.328 367.262 76.6 367.262 79.352C367.262 83.128 366.27 86.296 364.286 88.856C362.366 91.48 359.774 93.464 356.51 94.808C353.31 96.152 349.854 96.824 346.142 96.824ZM347.678 87.896C349.662 87.896 351.582 87.608 353.438 87.032C355.294 86.456 356.798 85.592 357.95 84.44C359.166 83.352 359.774 82.072 359.774 80.6C359.774 79.192 359.23 78.072 358.142 77.24C357.054 76.472 355.614 75.8 353.822 75.224C352.094 74.712 350.174 74.264 348.062 73.88C346.014 73.496 344.03 73.016 342.11 72.44C340.254 73.272 338.75 74.36 337.598 75.704C336.446 77.048 335.87 78.616 335.87 80.408C335.87 81.88 336.382 83.16 337.406 84.248C338.43 85.4 339.806 86.296 341.534 86.936C343.326 87.576 345.374 87.896 347.678 87.896ZM347.39 51.704C350.398 51.704 352.638 50.744 354.11 48.824C355.646 46.84 356.414 44.44 356.414 41.624C356.414 38.936 355.646 36.632 354.11 34.712C352.638 32.728 350.398 31.736 347.39 31.736C344.446 31.736 342.206 32.728 340.67 34.712C339.198 36.632 338.462 38.936 338.462 41.624C338.462 44.44 339.198 46.84 340.67 48.824C342.206 50.744 344.446 51.704 347.39 51.704Z" fill="#040D12"/>
<path d="M140.186 71L139.13 65.816L144.506 64.568V31.64H137.978L136.634 25.4L137.306 24.44H144.506V16.568C144.506 12.984 145.082 10.04 146.234 7.736C147.386 5.368 148.986 3.64 151.034 2.55199C153.146 1.4 155.546 0.823999 158.234 0.823999C159.514 0.823999 160.89 1.016 162.362 1.4C163.898 1.784 165.402 2.392 166.874 3.224C168.41 4.056 169.786 5.176 171.002 6.584L163.034 13.208L158.522 8.216H157.466C155.866 8.216 154.778 8.76 154.202 9.848C153.69 10.872 153.434 12.056 153.434 13.4V24.44H164.186C164.506 24.44 164.666 24.632 164.666 25.016V31.64H153.434V64.472L163.322 65.816L163.226 71H140.186ZM391.573 71.288C388.629 71.288 386.005 70.776 383.701 69.752C381.397 68.728 379.509 67.448 378.037 65.912C376.565 64.312 375.477 62.776 374.773 61.304L384.757 57.464L387.157 63.032C387.477 63.16 388.053 63.352 388.885 63.608C389.781 63.864 390.869 63.992 392.149 63.992C392.981 63.992 393.877 63.8 394.837 63.416C395.861 63.032 396.725 62.456 397.429 61.688C398.133 60.856 398.485 59.768 398.485 58.424C398.485 57.016 398.037 55.864 397.141 54.968C396.309 54.072 395.157 53.336 393.685 52.76C392.213 52.12 390.613 51.448 388.885 50.744C384.917 49.336 381.909 47.544 379.861 45.368C377.877 43.192 376.885 40.6 376.885 37.592C376.885 34.968 377.557 32.664 378.901 30.68C380.309 28.696 382.197 27.16 384.565 26.072C386.933 24.92 389.493 24.344 392.245 24.344C395.253 24.344 397.813 24.856 399.925 25.88C402.101 26.84 403.861 28.056 405.205 29.528C406.613 31 407.637 32.408 408.277 33.752L398.293 37.592L395.989 32.696C395.797 32.568 395.381 32.376 394.741 32.12C394.101 31.864 393.205 31.736 392.053 31.736C391.093 31.736 390.165 31.928 389.269 32.312C388.373 32.632 387.605 33.144 386.965 33.848C386.389 34.552 386.101 35.48 386.101 36.632C386.101 37.848 386.549 38.872 387.445 39.704C388.405 40.536 389.749 41.336 391.477 42.104C393.205 42.808 395.189 43.64 397.429 44.6C400.629 45.88 403.125 47.576 404.917 49.688C406.773 51.736 407.701 54.36 407.701 57.56C407.701 60.504 406.901 63.032 405.301 65.144C403.765 67.192 401.749 68.728 399.253 69.752C396.821 70.776 394.261 71.288 391.573 71.288ZM421.359 71.384C419.759 71.384 418.383 70.84 417.231 69.752C416.143 68.6 415.599 67.224 415.599 65.624C415.599 64.024 416.143 62.68 417.231 61.592C418.383 60.44 419.759 59.864 421.359 59.864C422.959 59.864 424.303 60.44 425.391 61.592C426.543 62.68 427.119 64.024 427.119 65.624C427.119 67.224 426.543 68.6 425.391 69.752C424.303 70.84 422.959 71.384 421.359 71.384Z" fill="#93B1A6"/>
</svg>
